<svg xmlns="http://www.w3.org/2000/svg" viewBox="0 0 1296 249"><path fill="#301c65" d="M1295.9,120q0,62.7.08,125.39c0,3-.6,3.58-3.58,3.58Q648,248.88,3.58,249c-3,0-3.59-.6-3.58-3.58Q.17,152.75.08,60.08c2.62-1.85,4.8-.08,7,1,13.61,6.69,27.1,13.61,40.71,20.27,62.77,30.68,126.75,58.45,193.17,80.33,50.91,16.76,102.76,29.58,155.94,36.63,16.33,2.16,32.74,3.49,49.2,4.51,21.32,1.32,42.66,1.26,63.92.48,29.61-1.08,59-4.78,88.24-10,41.07-7.39,81.31-18,121.21-30,58.06-17.54,115.17-38,172.77-56.91,38.16-12.54,76.58-24.13,116-32.15a666.08,666.08,0,0,1,82-11.71c10.3-.79,20.68-1.42,30.89-1.38,46.84.17,92.79,5.76,135.19,27.74,12.91,6.69,25,14.72,35.16,25.27A24.84,24.84,0,0,1,1295.9,120Z"/><path fill="#3d2b6d" d="M.08,36.1a34.48,34.48,0,0,1,5.47,1.73c50.61,25.33,101.76,49.45,154.55,70C196.57,122,233.5,134.87,271.57,144c24.88,6,50,11,75.22,15.43a342.83,342.83,0,0,0,44.58,4.4c21.77.92,43.63,1.76,65.37.83a594.68,594.68,0,0,0,62.41-6.42c52.81-7.91,104-22.54,154.7-39,32.77-10.63,65.34-21.86,98.22-32.14C828.13,69.59,884.18,52,940.61,35.69c22.09-6.36,45.15-9.48,67.88-13.5,30.92-5.47,62.24-6.56,93.47-4.9,56.47,3,110.17,16.27,157.65,48.51,11.62,7.89,21.76,18,32.58,27,1.25,1,2.47,2.14,3.71,3.21v24c-8.23-6.94-16-14.62-24.78-20.68-23.19-15.95-49.38-24.82-76.79-30.25-19.69-3.9-39.53-6.41-59.68-6.07-12.24.21-24.54-.67-36.72.22-17,1.24-33.92,3.1-50.71,5.73-19.75,3.1-39.44,6.81-58.94,11.18-17.61,3.94-35.14,8.49-52.34,13.91C898.08,106,860.43,118.57,822.72,131c-26.15,8.61-52.17,17.63-78.39,26C698.22,171.7,651.65,184.85,604,193.68c-16.72,3.1-33.69,4.84-50.52,7.31-33.18,4.87-66.6,4.48-99.95,3.74-17.47-.38-34.91-2.94-52.34-4.75-29.49-3.07-58.51-8.88-87.27-15.92a943.4,943.4,0,0,1-133-42.74q-49.55-20.26-98.37-42.25C56.74,87.43,31.59,74.46,6.13,62.13a49.46,49.46,0,0,0-6-2.05Z"/></svg>
