<svg xmlns="http://www.w3.org/2000/svg" viewBox="0 0 600 111.6"><path fill="#b28743" d="M600,.3V74.48a.9.9,0,0,1-1.53.38c-.82-.66-1.74-1.2-2.5-1.93a11.06,11.06,0,0,0-2.58-1.72c-4.18-2.5-8.31-5.08-12.71-7.19a132.76,132.76,0,0,0-21.09-7.87,184.81,184.81,0,0,0-27.36-5.47q-6.88-.88-13.82-1.31c-3.71-.22-7.43-.29-11.13-.5s-7.6-.26-11.38-.12c-5,.17-10.05.25-15.08.6-4.66.31-9.32.63-14,1.07q-8.94.87-17.84,2.14-15.3,2.19-30.45,5.3-19,3.89-37.9,7.93c-11.17,2.37-22.36,4.72-33.58,6.88C334.83,75,322.56,77.2,310.21,78.9c-6.72.92-13.45,1.76-20.21,2.38-5.25.49-10.49.92-15.76,1.2-4.19.22-8.38.29-12.56.5-4.84.25-9.68.25-14.5.13-5.31-.13-10.62-.24-15.92-.59-3.94-.26-7.88-.53-11.82-.84-4.66-.36-9.3-.89-13.93-1.47q-10.35-1.29-20.62-3.07c-7.56-1.31-15.08-2.78-22.57-4.46q-11.53-2.57-22.95-5.59c-8.11-2.16-16.17-4.48-24.2-6.9-9.15-2.76-18.23-5.74-27.26-8.84-11.45-3.93-22.84-8-34.12-12.45-3.64-1.42-7.13-3.21-10.7-4.81C32.39,29.26,21.88,24,11.4,18.75,8,17.05,4.65,15.27,1.33,13.45A3.64,3.64,0,0,1,0,12.27V.3A2.61,2.61,0,0,1,1.32.19Q300,.18,598.68.19A2.62,2.62,0,0,1,600,.3Z"/><path fill="#3f2d78" d="M596.2,72.75A83.93,83.93,0,0,0,579,67.1a171.76,171.76,0,0,0-25.88-3.25c-7.17-.43-14.31-.36-21.46-.32-4.82,0-9.64.4-14.46.81-2.62.23-5.26.36-7.89.53-6.26.39-12.48,1.15-18.71,1.84-5.84.65-11.65,1.44-17.47,2.26C459,71,444.94,73.51,431,76.26c-14.62,2.86-29.16,6.09-43.65,9.57C376.93,88.32,366.6,91,356.13,93c-8.86,1.74-17.78,3.08-26.74,4.19q-10.53,1.32-21.11,1.91c-6.34.35-12.67.85-19,.75-6.52-.1-13,.1-19.56-.05-5.42-.12-10.84-.44-16.26-.82-4.3-.3-8.6-.65-12.9-1-5.33-.46-10.64-1.12-15.95-1.77-13.45-1.65-26.79-4-40-6.8-15.12-3.21-30.11-7-44.92-11.44Q119,71.76,98.86,64.26c-9.24-3.45-18.38-7.16-27.47-11Q63.12,49.75,55,45.93c-6.69-3.12-13.44-6.13-20-9.51C23.44,30.48,12,24.36.85,17.71A8.57,8.57,0,0,1,0,17.05V12.27c3.5,1.46,6.72,3.49,10.1,5.19C20.5,22.67,30.85,27.93,41.44,32.7,74,47.34,107.92,58,142.3,67.25a467.13,467.13,0,0,0,48.28,10.27c11,1.76,22.07,3.1,33.2,4,11.29.87,22.59,1.28,33.91,1.1q16-.25,32-1.79c25.18-2.4,50-7.07,74.73-12.16,21.2-4.37,42.34-9.1,63.61-13.15q17.49-3.33,35.2-5.2a335.68,335.68,0,0,1,40.22-2.05c19.62.26,39,2.3,57.91,7.86,11.56,3.41,22.61,8,32.49,15C594.6,71.65,595.69,71.79,596.2,72.75Z"/></svg>
