<svg xmlns="http://www.w3.org/2000/svg" viewBox="0 0 600 115.68"><path fill="#e4d2b8" d="M600,54.83v60.55a2.57,2.57,0,0,1-1.29.11q-298.69,0-597.38,0A2.65,2.65,0,0,1,0,115.38V26.59c.55-.34,1,0,1.43.27Q15,33.81,28.71,40.44q14,6.78,28.32,13T85.88,65.27q14.78,5.67,29.87,10.48A409.53,409.53,0,0,0,168.89,89q11.28,2,22.67,3.21,6.44.69,12.89,1.06c4.35.24,8.7.37,13.05.5,2.51.08,5,.32,7.54.15,5.3-.35,10.62-.26,15.92-.61A337.61,337.61,0,0,0,275.7,89.2c13.45-2.32,26.72-5.45,39.87-9.07,13.69-3.76,27.23-8,40.73-12.39,12.43-4,24.8-8.27,37.2-12.42,15.43-5.16,30.81-10.45,46.48-14.86A352.47,352.47,0,0,1,488.4,30.17c6-.8,12-1.36,18-1.81A193.87,193.87,0,0,1,528.09,28c15.1.56,29.92,2.85,44.09,8.37A78,78,0,0,1,594.45,49.1a52.47,52.47,0,0,1,3.92,3.53A7.36,7.36,0,0,1,600,54.83Z"/><path fill="#b28843" d="M0,16.06c.75-.45,1.38,0,2,.29,6.51,3.24,13,6.58,19.53,9.71,8,3.84,16.1,7.61,24.25,11.21,9.25,4.08,18.55,8,28,11.68a453.49,453.49,0,0,0,57.71,18.43,317,317,0,0,0,34,6.28c5.9.75,11.84,1.13,17.77,1.6,8.28.65,16.54.28,24.81.35,4,0,8-.52,11.95-.81s8-.74,12-1.24q13.68-1.73,27.15-4.64c14.33-3.11,28.46-7,42.46-11.32,25.54-7.88,50.83-16.52,76.23-24.82q20.83-6.8,41.91-12.87A362.59,362.59,0,0,1,456.61,11c6.33-1.13,12.68-2.14,19.07-2.79a164.64,164.64,0,0,1,19.86-1c4.75.1,9.52-.06,14.27,0A148.64,148.64,0,0,1,527.92,9a146.45,146.45,0,0,1,32.93,8.75A120.31,120.31,0,0,1,579.27,27,97.24,97.24,0,0,1,592,36.06c2.82,2.42,5.29,5.18,7.94,7.77v11a60.37,60.37,0,0,0-11-9.41,92,92,0,0,0-27.11-12.11,142.22,142.22,0,0,0-24.69-4.38,191.66,191.66,0,0,0-24.67-.59c-7.65.26-15.27,1-22.87,2a365.22,365.22,0,0,0-60.26,13.56c-19.91,6.13-39.57,13-59.32,19.62-17.18,5.74-34.41,11.35-51.86,16.22-12.18,3.39-24.45,6.39-36.87,8.77-8.3,1.59-16.66,2.89-25.06,3.82q-7.67.85-15.38,1.31c-6.82.42-13.65.66-20.47.59-7-.07-14.06-.33-21.06-.92a345.32,345.32,0,0,1-44.9-6.79,454.25,454.25,0,0,1-52.2-14.92c-14.9-5.18-29.54-11-44-17.27C39.36,46.17,20.84,37.15,2.48,27.8A11,11,0,0,0,0,26.59Z"/></svg>
