<svg xmlns="http://www.w3.org/2000/svg" viewBox="0 0 600 150.72"><path fill="#b28843" d="M600,64.23q0,42.74,0,85.49c0,.8-.12,1-1,1q-299,0-598.07,0c-.86,0-1-.22-1-1Q0,89,0,28.3c.6-.35,1,.12,1.38.4q12.23,8.58,24.73,16.73c15.14,9.93,30.56,19.42,46.32,28.33,10.72,6.06,21.6,11.83,32.7,17.16a410.29,410.29,0,0,0,44.26,18.41,286.77,286.77,0,0,0,36.52,10,199.2,199.2,0,0,0,22.29,3.27c3.78.32,7.56.52,11.35.74,3.44.19,6.88.24,10.3.14,5.15-.15,10.29-.4,15.42-.86a238.41,238.41,0,0,0,27.5-4.11,290.18,290.18,0,0,0,29.54-7.88c11.5-3.7,22.81-7.91,34-12.47,10.48-4.28,20.85-8.79,31.19-13.38,10.69-4.77,21.36-9.6,32.05-14.37,9-4,17.95-8,27-11.88,6.95-3,14-5.66,21.14-8.18a287.29,287.29,0,0,1,28.84-8.56A208,208,0,0,1,502,37.3c4.65-.52,9.3-.87,14-1,2.27-.06,4.55-.23,6.82-.17,14.07.33,28,1.73,41.54,5.84,9.63,2.92,18.72,7,26.78,13.11a41.91,41.91,0,0,1,7.58,7.12A7.85,7.85,0,0,1,600,64.23Z"/><path fill="#e4d2b8" d="M0,16.08c2,.2,3.37,1.58,4.89,2.63,7.47,5.17,15,10.23,22.71,15.1,4.48,2.83,8.91,5.75,13.44,8.51C48.62,46.93,56.22,51.46,64,55.79c6.72,3.76,13.57,7.27,20.36,10.91a321.83,321.83,0,0,0,33.07,15.09,267.58,267.58,0,0,0,32.7,10.72,145,145,0,0,0,15.37,3.43c4.21.58,8.37,1.45,12.61,1.84,4.08.38,8.12,1.1,12.2,1.32,2.12.12,4.25.28,6.38.31,3.88.06,7.76.08,11.64,0s7.46-.49,11.17-.9c3.52-.39,7-.69,10.54-1.23,6.18-1,12.32-2.06,18.41-3.46A289.56,289.56,0,0,0,277,85.62c9.62-3.29,19.11-7,28.5-10.86q12.92-5.39,25.76-11C339.18,60.35,347,56.63,355,53.23c8.4-3.59,16.72-7.35,25.11-10.94,13.2-5.65,26.44-11.2,39.81-16.44a281.84,281.84,0,0,1,39-12.53,177.18,177.18,0,0,1,18.4-3.4c3.82-.47,7.69-.75,11.52-1.13a126.22,126.22,0,0,1,15.43-.33c4.16.09,8.33.45,12.5.83A112.11,112.11,0,0,1,537,13.23a104.81,104.81,0,0,1,15.43,5.47c9,4.11,17.73,8.63,25.58,14.71a39.57,39.57,0,0,1,6.27,5.87c2.16,2.57,5,4.51,7.11,7.1A96.55,96.55,0,0,1,600,57.52v6.71c-1.16-1.36-2.25-2.78-3.51-4.05A64.9,64.9,0,0,0,576.89,47a112.66,112.66,0,0,0-29.81-8.59,142.16,142.16,0,0,0-14.87-1.55c-4.23-.2-8.46-.47-12.69-.38A189.71,189.71,0,0,0,498.64,38a254.09,254.09,0,0,0-49.07,12c-10.77,3.69-21.31,8-31.71,12.6q-27.57,12.28-55.13,24.6c-14.38,6.39-28.86,12.51-43.63,18A318.12,318.12,0,0,1,267.25,120a212.38,212.38,0,0,1-21.91,3c-3.94.32-7.88.54-11.83.73s-7.68.24-11.51.12c-6.06-.2-12.1-.62-18.14-1.31a256.27,256.27,0,0,1-52.8-12.26,382.06,382.06,0,0,1-36.47-14.56A597.89,597.89,0,0,1,56.11,64.6C41.57,55.91,27.34,46.73,13.3,37.27c-4.08-2.75-8.09-5.58-12.14-8.35C.8,28.68.5,28.32,0,28.3Z"/></svg>
